<?xml version="1.0" encoding="UTF-8"?>
<svg width="511px" height="334px" viewBox="0 0 511 334" version="1.1" xmlns="http://www.w3.org/2000/svg" xmlns:xlink="http://www.w3.org/1999/xlink">
    <!-- Generator: Sketch 41 (35326) - http://www.bohemiancoding.com/sketch -->
    <title>maurten</title>
    <desc>Created with Sketch.</desc>
    <defs></defs>
    <g id="Page-1" stroke="none" stroke-width="1" fill="none" fill-rule="evenodd">
        <g id="maurten" fill="#FFFFFF">
            <polygon id="Shape" points="57.42 333 57.42 285.9 42 316.54 31.32 316.54 15.77 285.9 15.77 333 0 333 0 252.2 15.55 252.2 36.66 295.89 57.66 252.2 73.19 252.2 73.19 333"></polygon>
            <path d="M138.67,333 L133.9,318.7 L105.19,318.7 L100.32,333 L83.86,333 L113.25,252.2 L125.62,252.2 L155.12,333 L138.67,333 Z M119.83,276 L109.62,305.39 L129.71,305.39 L119.83,276 Z" id="Shape"></path>
            <path d="M192.12,333.68 C175.55,333.68 162.39,322.45 162.39,305.31 L162.39,252.2 L178.16,252.2 L178.16,304.74 C178.16,314.05 183.61,319.61 192.16,319.61 C200.71,319.61 206.23,314.05 206.23,304.74 L206.23,252.2 L221.89,252.2 L221.89,305.31 C221.85,322.44 208.69,333.68 192.12,333.68 Z" id="Shape"></path>
            <path d="M282.34,333 L266.57,300.77 L255.21,300.77 L255.21,333 L239.44,333 L239.44,252.2 L271.1,252.2 C287.55,252.2 297.31,263.43 297.31,276.94 C297.58074,286.483164 291.599343,295.088265 282.56,298.16 L300.56,333 L282.34,333 Z M270.08,266.27 L255.21,266.27 L255.21,287.6 L270.08,287.6 C277,287.6 281.54,283.17 281.54,276.93 C281.54,270.69 277,266.27 270.08,266.27 Z" id="Shape"></path>
            <polygon id="Shape" points="344.52 266.27 344.52 333 328.75 333 328.75 266.27 307.64 266.27 307.64 252.2 365.64 252.2 365.64 266.27"></polygon>
            <polygon id="Shape" points="380.16 333 380.16 252.2 433.38 252.2 433.38 266.27 395.93 266.27 395.93 285.27 427.82 285.27 427.82 299.34 395.93 299.34 395.93 318.97 433.38 318.97 433.38 333"></polygon>
            <polygon id="Shape" points="496.45 333 464.45 283.41 464.45 333 448.67 333 448.67 252.2 462.74 252.2 494.74 301.68 494.74 252.2 510.51 252.2 510.51 333"></polygon>
            <path d="M147,203.77 C139.488927,203.77 133.4,197.681073 133.4,190.17 L133.4,65.54 L245,155.48 L328.54,0.67 L371.77,141.67 C373.199062,146.314453 372.041784,151.3685 368.734102,154.92833 C365.426419,158.488161 360.470847,160.012952 355.734102,158.92833 C350.997356,157.843708 347.199062,154.314453 345.77,149.67 L321.6,70.8 L253.39,197.19 L160.62,122.4 L160.62,190.16 C160.62266,193.772145 159.188234,197.236963 156.633124,199.790198 C154.078013,202.343432 150.612142,203.775313 147,203.77 Z" id="Shape"></path>
            <circle id="Oval" cx="372.27" cy="189.69" r="14.07"></circle>
        </g>
    </g>
</svg>